<svg xmlns="http://www.w3.org/2000/svg" xmlns:xlink="http://www.w3.org/1999/xlink" viewBox="92 485 624 130" preserveAspectRatio="xMidYMid meet" version="1.0"><defs><g/><clipPath id="aefaf385c1"><rect x="0" width="253" y="0" height="112"/></clipPath><clipPath id="0d53a6f891"><rect x="0" width="364" y="0" height="112"/></clipPath></defs><g transform="matrix(1, 0, 0, 1, 96, 483)"><g clip-path="url(#aefaf385c1)"><g fill="#ffffff" fill-opacity="1"><g transform="translate(1.661928, 85.276273)"><g><path d="M 16.578125 -13.140625 L 16.578125 -23.46875 L 56.4375 -23.46875 L 56.4375 -13.140625 Z M 1.578125 0 L 29.890625 -60.265625 L 43.3125 -60.265625 L 71.90625 0 L 58.40625 0 L 33.625 -54.296875 L 39.578125 -54.296875 L 15 0 Z M 1.578125 0 "/></g></g></g><g fill="#ffffff" fill-opacity="1"><g transform="translate(75.147614, 85.276273)"><g><path d="M 17.890625 -19.5625 L 17.890625 -29.4375 L 45.453125 -29.4375 C 48.742188 -29.4375 51.347656 -30.316406 53.265625 -32.078125 C 55.191406 -33.847656 56.15625 -36.316406 56.15625 -39.484375 C 56.15625 -42.773438 55.191406 -45.289062 53.265625 -47.03125 C 51.347656 -48.769531 48.742188 -49.640625 45.453125 -49.640625 L 19.375 -49.640625 L 19.375 0 L 6.984375 0 L 6.984375 -60.265625 L 44.328125 -60.265625 C 47.679688 -60.265625 50.832031 -59.859375 53.78125 -59.046875 C 56.738281 -58.242188 59.316406 -57.003906 61.515625 -55.328125 C 63.722656 -53.648438 65.445312 -51.503906 66.6875 -48.890625 C 67.925781 -46.285156 68.546875 -43.148438 68.546875 -39.484375 C 68.546875 -35.890625 67.925781 -32.816406 66.6875 -30.265625 C 65.445312 -27.722656 63.722656 -25.660156 61.515625 -24.078125 C 59.316406 -22.492188 56.738281 -21.34375 53.78125 -20.625 C 50.832031 -19.914062 47.679688 -19.5625 44.328125 -19.5625 Z M 17.890625 -19.5625 "/></g></g></g><g fill="#ffffff" fill-opacity="1"><g transform="translate(148.167614, 85.276273)"><g><path d="M 54.015625 -6.140625 L 48.15625 -6.140625 L 82.796875 -60.265625 L 95.1875 -60.265625 L 95.1875 0 L 82.796875 0 L 82.796875 -43.78125 L 85.78125 -42.9375 L 58.125 0 L 44.234375 0 L 16.578125 -42.75 L 19.5625 -43.59375 L 19.5625 0 L 7.171875 0 L 7.171875 -60.265625 L 19.5625 -60.265625 Z M 54.015625 -6.140625 "/></g></g></g></g></g><g transform="matrix(1, 0, 0, 1, 348, 483)"><g clip-path="url(#0d53a6f891)"><g fill="#ffbd59" fill-opacity="1"><g transform="translate(2.197867, 85.276273)"><g><path d="M 3.171875 -20.296875 L 15.734375 -20.296875 C 15.984375 -18.191406 16.960938 -16.285156 18.671875 -14.578125 C 20.378906 -12.867188 22.628906 -11.53125 25.421875 -10.5625 C 28.222656 -9.601562 31.359375 -9.125 34.828125 -9.125 C 37.992188 -9.125 40.601562 -9.460938 42.65625 -10.140625 C 44.707031 -10.828125 46.226562 -11.789062 47.21875 -13.03125 C 48.21875 -14.28125 48.71875 -15.773438 48.71875 -17.515625 C 48.71875 -19.191406 48.09375 -20.476562 46.84375 -21.375 C 45.601562 -22.269531 43.648438 -23.015625 40.984375 -23.609375 C 38.316406 -24.203125 34.804688 -24.804688 30.453125 -25.421875 C 27.035156 -25.921875 23.804688 -26.617188 20.765625 -27.515625 C 17.722656 -28.421875 15.035156 -29.585938 12.703125 -31.015625 C 10.378906 -32.441406 8.550781 -34.195312 7.21875 -36.28125 C 5.882812 -38.363281 5.21875 -40.832031 5.21875 -43.6875 C 5.21875 -47.21875 6.222656 -50.316406 8.234375 -52.984375 C 10.253906 -55.660156 13.25 -57.742188 17.21875 -59.234375 C 21.195312 -60.722656 26.078125 -61.46875 31.859375 -61.46875 C 40.546875 -61.46875 47.234375 -59.617188 51.921875 -55.921875 C 56.609375 -52.234375 58.890625 -47.160156 58.765625 -40.703125 L 46.65625 -40.703125 C 46.414062 -44.367188 44.878906 -47.007812 42.046875 -48.625 C 39.222656 -50.238281 35.671875 -51.046875 31.390625 -51.046875 C 27.410156 -51.046875 24.132812 -50.453125 21.5625 -49.265625 C 18.988281 -48.085938 17.703125 -46.070312 17.703125 -43.21875 C 17.703125 -42.101562 18.007812 -41.125 18.625 -40.28125 C 19.25 -39.445312 20.304688 -38.71875 21.796875 -38.09375 C 23.285156 -37.46875 25.300781 -36.875 27.84375 -36.3125 C 30.394531 -35.757812 33.5625 -35.203125 37.34375 -34.640625 C 40.882812 -34.148438 44.097656 -33.484375 46.984375 -32.640625 C 49.878906 -31.804688 52.363281 -30.722656 54.4375 -29.390625 C 56.519531 -28.054688 58.117188 -26.363281 59.234375 -24.3125 C 60.347656 -22.257812 60.90625 -19.742188 60.90625 -16.765625 C 60.90625 -13.097656 59.957031 -9.914062 58.0625 -7.21875 C 56.175781 -4.519531 53.257812 -2.425781 49.3125 -0.9375 C 45.375 0.550781 40.269531 1.296875 34 1.296875 C 29.53125 1.296875 25.585938 0.816406 22.171875 -0.140625 C 18.753906 -1.097656 15.800781 -2.382812 13.3125 -4 C 10.832031 -5.613281 8.816406 -7.382812 7.265625 -9.3125 C 5.710938 -11.238281 4.609375 -13.160156 3.953125 -15.078125 C 3.304688 -17.003906 3.046875 -18.742188 3.171875 -20.296875 Z M 3.171875 -20.296875 "/></g></g></g><g fill="#ffbd59" fill-opacity="1"><g transform="translate(66.835478, 85.276273)"><g><path d="M 47.78125 -15.375 L 59.515625 -15.375 C 59.015625 -12.207031 57.691406 -9.378906 55.546875 -6.890625 C 53.410156 -4.410156 50.507812 -2.453125 46.84375 -1.015625 C 43.1875 0.410156 38.71875 1.125 33.4375 1.125 C 27.539062 1.125 22.320312 0.175781 17.78125 -1.71875 C 13.25 -3.613281 9.710938 -6.363281 7.171875 -9.96875 C 4.628906 -13.570312 3.359375 -17.914062 3.359375 -23 C 3.359375 -28.09375 4.597656 -32.457031 7.078125 -36.09375 C 9.554688 -39.726562 13.015625 -42.503906 17.453125 -44.421875 C 21.898438 -46.347656 27.101562 -47.3125 33.0625 -47.3125 C 39.144531 -47.3125 44.203125 -46.347656 48.234375 -44.421875 C 52.273438 -42.503906 55.273438 -39.601562 57.234375 -35.71875 C 59.191406 -31.832031 60.015625 -26.878906 59.703125 -20.859375 L 15.546875 -20.859375 C 15.859375 -18.503906 16.742188 -16.363281 18.203125 -14.4375 C 19.660156 -12.507812 21.644531 -10.988281 24.15625 -9.875 C 26.675781 -8.757812 29.675781 -8.203125 33.15625 -8.203125 C 37.007812 -8.203125 40.222656 -8.867188 42.796875 -10.203125 C 45.367188 -11.535156 47.03125 -13.257812 47.78125 -15.375 Z M 32.5 -38.09375 C 28.03125 -38.09375 24.398438 -37.113281 21.609375 -35.15625 C 18.816406 -33.207031 17.015625 -30.800781 16.203125 -27.9375 L 47.6875 -27.9375 C 47.375 -31.039062 45.898438 -33.507812 43.265625 -35.34375 C 40.628906 -37.175781 37.039062 -38.09375 32.5 -38.09375 Z M 32.5 -38.09375 "/></g></g></g><g fill="#ffbd59" fill-opacity="1"><g transform="translate(129.33093, 85.276273)"><g><path d="M 2.328125 -46.296875 L 38.28125 -46.296875 L 38.28125 -36.890625 L 2.328125 -36.890625 Z M 14.25 -58.953125 L 26.359375 -58.953125 L 26.359375 0 L 14.25 0 Z M 14.25 -58.953125 "/></g></g><g transform="translate(169.752723, 85.276273)"><g><path d="M 2.328125 -46.296875 L 38.28125 -46.296875 L 38.28125 -36.890625 L 2.328125 -36.890625 Z M 14.25 -58.953125 L 26.359375 -58.953125 L 26.359375 0 L 14.25 0 Z M 14.25 -58.953125 "/></g></g><g transform="translate(210.174516, 85.276273)"><g><path d="M 19.46875 -66.59375 L 19.46875 -55.984375 L 5.40625 -55.984375 L 5.40625 -66.59375 Z M 6.328125 -46.296875 L 18.4375 -46.296875 L 18.4375 0 L 6.328125 0 Z M 6.328125 -46.296875 "/></g></g></g><g fill="#ffbd59" fill-opacity="1"><g transform="translate(235.135434, 85.276273)"><g><path d="M 5.59375 -46.296875 L 17.703125 -46.296875 L 17.703125 0 L 5.59375 0 Z M 39.21875 -47.3125 C 42.070312 -47.3125 44.707031 -46.9375 47.125 -46.1875 C 49.550781 -45.445312 51.660156 -44.300781 53.453125 -42.75 C 55.253906 -41.195312 56.648438 -39.222656 57.640625 -36.828125 C 58.640625 -34.441406 59.140625 -31.601562 59.140625 -28.3125 L 59.140625 0 L 47.03125 0 L 47.03125 -26.171875 C 47.03125 -30.085938 46.082031 -32.957031 44.1875 -34.78125 C 42.300781 -36.613281 39.210938 -37.53125 34.921875 -37.53125 C 31.691406 -37.53125 28.773438 -36.910156 26.171875 -35.671875 C 23.566406 -34.429688 21.457031 -32.863281 19.84375 -30.96875 C 18.226562 -29.070312 17.296875 -27.101562 17.046875 -25.0625 L 16.953125 -29.8125 C 17.265625 -31.976562 17.976562 -34.085938 19.09375 -36.140625 C 20.207031 -38.191406 21.710938 -40.066406 23.609375 -41.765625 C 25.503906 -43.472656 27.753906 -44.820312 30.359375 -45.8125 C 32.972656 -46.8125 35.925781 -47.3125 39.21875 -47.3125 Z M 39.21875 -47.3125 "/></g></g></g><g fill="#ffbd59" fill-opacity="1"><g transform="translate(299.679908, 85.276273)"><g><path d="M 28.6875 -7.078125 C 23.65625 -7.078125 19.226562 -7.835938 15.40625 -9.359375 C 11.59375 -10.878906 8.628906 -13.128906 6.515625 -16.109375 C 4.410156 -19.085938 3.359375 -22.691406 3.359375 -26.921875 C 3.359375 -31.078125 4.378906 -34.675781 6.421875 -37.71875 C 8.472656 -40.757812 11.40625 -43.117188 15.21875 -44.796875 C 19.039062 -46.472656 23.53125 -47.3125 28.6875 -47.3125 C 30.113281 -47.3125 31.492188 -47.21875 32.828125 -47.03125 C 34.160156 -46.84375 35.484375 -46.597656 36.796875 -46.296875 L 60.171875 -46.203125 L 60.171875 -37.0625 C 57.003906 -37.007812 53.789062 -37.398438 50.53125 -38.234375 C 47.269531 -39.066406 44.394531 -39.984375 41.90625 -40.984375 L 41.640625 -41.640625 C 43.742188 -40.640625 45.726562 -39.410156 47.59375 -37.953125 C 49.457031 -36.492188 50.960938 -34.816406 52.109375 -32.921875 C 53.253906 -31.023438 53.828125 -28.835938 53.828125 -26.359375 C 53.828125 -22.316406 52.800781 -18.851562 50.75 -15.96875 C 48.707031 -13.082031 45.804688 -10.878906 42.046875 -9.359375 C 38.296875 -7.835938 33.84375 -7.078125 28.6875 -7.078125 Z M 44.234375 19.09375 L 44.234375 16.859375 C 44.234375 14.003906 43.316406 12.015625 41.484375 10.890625 C 39.660156 9.773438 37.164062 9.21875 34 9.21875 L 19.5625 9.21875 C 16.769531 9.21875 14.425781 9 12.53125 8.5625 C 10.632812 8.132812 9.125 7.515625 8 6.703125 C 6.882812 5.898438 6.078125 4.953125 5.578125 3.859375 C 5.085938 2.773438 4.84375 1.613281 4.84375 0.375 C 4.84375 -2.113281 5.648438 -3.992188 7.265625 -5.265625 C 8.878906 -6.535156 11.050781 -7.382812 13.78125 -7.8125 C 16.519531 -8.25 19.53125 -8.347656 22.8125 -8.109375 L 28.6875 -7.078125 C 24.769531 -6.953125 21.863281 -6.625 19.96875 -6.09375 C 18.082031 -5.570312 17.140625 -4.535156 17.140625 -2.984375 C 17.140625 -2.046875 17.507812 -1.3125 18.25 -0.78125 C 19 -0.257812 20.054688 0 21.421875 0 L 36.609375 0 C 40.765625 0 44.316406 0.445312 47.265625 1.34375 C 50.210938 2.25 52.460938 3.769531 54.015625 5.90625 C 55.566406 8.050781 56.34375 10.988281 56.34375 14.71875 L 56.34375 19.09375 Z M 28.6875 -15.828125 C 31.351562 -15.828125 33.695312 -16.257812 35.71875 -17.125 C 37.738281 -18 39.304688 -19.257812 40.421875 -20.90625 C 41.535156 -22.550781 42.09375 -24.523438 42.09375 -26.828125 C 42.09375 -29.179688 41.535156 -31.195312 40.421875 -32.875 C 39.304688 -34.550781 37.753906 -35.835938 35.765625 -36.734375 C 33.773438 -37.640625 31.414062 -38.09375 28.6875 -38.09375 C 26.019531 -38.09375 23.660156 -37.640625 21.609375 -36.734375 C 19.554688 -35.835938 17.972656 -34.550781 16.859375 -32.875 C 15.742188 -31.195312 15.1875 -29.179688 15.1875 -26.828125 C 15.1875 -24.523438 15.742188 -22.550781 16.859375 -20.90625 C 17.972656 -19.257812 19.539062 -18 21.5625 -17.125 C 23.582031 -16.257812 25.957031 -15.828125 28.6875 -15.828125 Z M 28.6875 -15.828125 "/></g></g></g></g></g></svg>